inDegrees=yes
name=ik_S52_A10_T01
DataType=double
version=3
OpenSimVersion=4.3-2021-08-27-4bc7ad9
endheader
time	pelvis_tilt	pelvis_list	pelvis_rotation	pelvis_tx	pelvis_ty	pelvis_tz	hip_flexion_r	hip_adduction_r	hip_rotation_r	knee_angle_r	knee_angle_r_beta	ankle_angle_r	subtalar_angle_r	mtp_angle_r	hip_flexion_l	hip_adduction_l	hip_rotation_l	knee_angle_l	knee_angle_l_beta	ankle_angle_l	subtalar_angle_l	mtp_angle_l	lumbar_extension	lumbar_bending	lumbar_rotation	arm_flex_r	arm_add_r	arm_rot_r	elbow_flex_r	pro_sup_r	wrist_flex_r	wrist_dev_r	arm_flex_l	arm_add_l	arm_rot_l	elbow_flex_l	pro_sup_l	wrist_flex_l	wrist_dev_l
0	0	0	0	0	0.9399999999999999	0	0	0	0	0	0	0	0	0	0	0	0	0	0	0	0	0	0	0	0	0	0	0	0	89.99999999963507	0	0	0	0	0	0	89.99999999869995	0	0
0.02	-0.2555724902024837	-0.6003072672185314	19.7946423415921	0	0.9399999999999999	0	1.936283543426642	-0.9015268924088577	-0.6509896277787424	3.017546570076445	0.05266612298009576	0	0	0	1.936283543426642	-0.9015268924088577	-0.6509896277787424	3.017546570076445	0.05266612298009576	0	0	0	-0.2127623641318286	0.3848280665772014	7.331993036716601	17.75659308417567	1.810885441804279	4.699332821073711	6.423215740738859	100.7106353591781	0	0	12.09619786658103	-1.23126225325432	-1.912750278076621	15.68143966102308	97.50657730548184	0	0
0.04	-0.2455142108683962	-0.5926845768526354	19.86051402181534	0	0.9399999999999999	0	2.306258644895805	-1.057206303287114	-0.7919298938813466	3.208162917261818	0.05599300584660515	0	0	0	2.306258644895805	-1.057206303287114	-0.7919298938813466	3.208162917261818	0.05599300584660515	0	0	0	-0.2030095829477697	0.3821350200240713	7.27286455145027	17.74496933641577	1.824597199615057	4.701535755543373	6.3728750486238	100.6909925935919	0	0	12.05982626989146	-1.232485560672171	-1.900342439937332	15.7197791770807	97.45337839662962	0	0
0.06	-0.2628829153542194	-0.5769028148369464	20.07116462375424	0	0.9399999999999999	0	4.974656444537005	-2.268429407808263	-1.748110270329911	5.919109028303891	0.1033079413284251	0	0	0	4.974656444537005	-2.268429407808263	-1.748110270329911	5.919109028303891	0.1033079413284251	0	0	0	-0.2204881411971217	0.3538238045001834	7.044507171824559	17.78063013360171	1.818192298714712	4.678774058211863	6.388115466550426	100.7562255829966	0	0	12.09245643379704	-1.251722584506066	-1.94423026436167	15.65630388931995	97.51533820633888	0	0
0.08	-0.2724746728844375	-0.5530298092919438	20.04886537024391	0	0.9399999999999999	0	6.704509558531346	-2.947217072352665	-2.339889450620936	7.425109053897526	0.1295926003101529	0	0	0	6.704509558531346	-2.947217072352665	-2.339889450620936	7.425109053897526	0.1295926003101529	0	0	0	-0.2105805218378178	0.3277434513837523	7.055000637201796	17.76905450502978	1.832897809246919	4.711745929942761	6.388916237773286	100.6827118290394	0	0	12.0823179854848	-1.259159166878478	-1.923414747195553	15.68570171222032	97.43359470332544	0	0
0.1	-0.2787799590235754	-0.534806259321565	20.20255233172029	0	0.9399999999999999	0	8.215410967346211	-3.53142396669119	-2.842630731194914	8.830665032299798	0.1541241799543629	0	0	0	8.215410967346211	-3.53142396669119	-2.842630731194914	8.830665032299798	0.1541241799543629	0	0	0	-0.2105221275372131	0.3146628064795868	6.921493163297505	17.75135755824785	1.823542023796263	4.730234827910293	6.417568520640564	100.6759529013642	0	0	12.09237682409379	-1.245561658425224	-1.898777408082031	15.63544196371379	97.47190840619888	0	0
0.12	-0.2943537872457904	-0.5413735529047966	20.21149978533522	0	0.9399999999999999	0	8.341674729348746	-3.586428701432589	-2.885006235158208	8.970078003029979	0.156557395313591	0	0	0	8.341674729348746	-3.586428701432589	-2.885006235158208	8.970078003029979	0.156557395313591	0	0	0	-0.2278600856215902	0.3122466182682193	6.91296730463781	17.73415143827965	1.80088485722371	4.737210055571144	6.624320990159758	100.6546074287371	0	0	12.1110081485354	-1.265947473780602	-1.895785965556458	15.79734313028977	97.4480447317431	0	0
0.14	-0.2773462006859717	-0.5380521152617697	20.25626139948834	0	0.9399999999999999	0	8.680583340829255	-3.734105332934035	-2.997844975566605	9.36291076143327	0.1634136203574199	0	0	0	8.680583340829255	-3.734105332934035	-2.997844975566605	9.36291076143327	0.1634136203574199	0	0	0	-0.2050859861211944	0.3032695576092339	6.866645613621295	17.73147358531803	1.828323272004294	4.727748126930219	6.395477773603882	100.700001330041	0	0	12.08455030835057	-1.258905693514992	-1.908785413653949	15.61544525141593	97.48015798285846	0	0
0.16	-0.2842243762498129	-0.5443640220127989	20.28501115227977	0	0.9399999999999999	0	8.901401001763288	-3.806931425554109	-3.067827458908324	9.549746148652369	0.1666745130236317	0	0	0	8.901401001763288	-3.806931425554109	-3.067827458908324	9.549746148652369	0.1666745130236317	0	0	0	-0.2145320291443991	0.2956199463664426	6.845710811196988	17.76152147241783	1.826439493952078	4.714256474400447	6.374483740937605	100.6940031546997	0	0	12.0992757712027	-1.261697471994352	-1.885972204933385	15.66532798939286	97.45770118423697	0	0
0.18	-0.2911988316652545	-0.5602932837549071	20.29659663764097	0	0.9399999999999999	0	8.970399756415782	-3.832006348258317	-3.090261656642878	9.610843503944601	0.1677408630377419	0	0	0	8.970399756415782	-3.832006348258317	-3.090261656642878	9.610843503944601	0.1677408630377419	0	0	0	-0.2270429347797844	0.2822888202954285	6.839270523749337	17.76614812223206	1.860871081811789	4.732200908354541	6.3668375828202	100.7002374521677	0	0	12.13551182415791	-1.284220560456122	-1.889104262209637	15.57537513030136	97.49707069058927	0	0
0.2	-0.2897960286940617	-0.5566118995833734	20.31011559209683	0	0.9399999999999999	0	9.20742485424236	-3.913494754457771	-3.166197394900403	9.81521954802926	0.1713078979192203	0	0	0	9.20742485424236	-3.913494754457771	-3.166197394900403	9.81521954802926	0.1713078979192203	0	0	0	-0.2251693276880028	0.2808275008672915	6.826925030069876	17.76176680431507	1.856300021704172	4.736780283250565	6.386670423824647	100.671393564731	0	0	12.12022808166133	-1.273319709657168	-1.851043971228387	15.62391429287943	97.46500896311225	0	0
0.22	-0.2857004321951425	-0.5525267059325885	20.31725722718939	0	0.9399999999999999	0	9.288042421025823	-3.943677866296841	-3.192353762856368	9.891987528990136	0.1726477519470959	0	0	0	9.288042421025823	-3.943677866296841	-3.192353762856368	9.891987528990136	0.1726477519470959	0	0	0	-0.2202981131178048	0.2819162691409373	6.817729531791969	17.72493235255693	1.866233827746087	4.746334578227012	6.407135190277508	100.682127894415	0	0	12.10521745405134	-1.263114914191386	-1.843622758744623	15.57381022489589	97.4889208679989	0	0
0.24	-0.3046151620357477	-0.563525719786195	20.37212498275264	0	0.9399999999999999	0	9.872890607737331	-4.159782846832103	-3.378937114577599	10.48859281197398	0.1830604784699565	0	0	0	9.872890607737331	-4.159782846832103	-3.378937114577599	10.48859281197398	0.1830604784699565	0	0	0	-0.2401542135707615	0.2690886576358174	6.775612694637458	17.76640252214667	1.862044190131126	4.814345315227538	6.488369860279519	100.6058633508184	0	0	12.14354430278929	-1.27106508009964	-1.833253310161322	15.5100307354455	97.54494281835446	0	0
0.26	-0.3131238091529808	-0.5745152075928867	20.37651779058723	0	0.9399999999999999	0	9.895080659533004	-4.166266235573597	-3.385873746410887	10.50333709614837	0.1833178147746493	0	0	0	9.895080659533004	-4.166266235573597	-3.385873746410887	10.50333709614837	0.1833178147746493	0	0	0	-0.2520903022425822	0.2614340203962541	6.767090369453092	17.76450175829894	1.872835126076734	4.885088784984278	6.302691426154285	100.6705088088806	0	0	12.15002143797894	-1.26717342525336	-1.769335983819023	15.4726462745315	97.51204930883813	0	0
0.28	-0.3166031824529874	-0.5764427437184074	20.41247286208341	0	0.9399999999999999	0	10.15010298341862	-4.252884602092887	-3.466104237557111	10.73555988618435	0.1873708670589447	0	0	0	10.15010298341862	-4.252884602092887	-3.466104237557111	10.73555988618435	0.1873708670589447	0	0	0	-0.2569025746083818	0.2561280430761985	6.733584677099688	17.78027813099733	1.883764119996497	4.995783236765557	6.304504237793714	100.5813011326583	0	0	12.14987851088233	-1.278272384307318	-1.744922722487852	15.44679018976234	97.51678304417362	0	0
0.3	-0.3302051552200145	-0.5852829056957927	20.44371905930242	0	0.9399999999999999	0	10.3173633621947	-4.311548606123708	-3.518729690402772	10.89621057073019	0.1901747504498522	0	0	0	10.3173633621947	-4.311548606123708	-3.518729690402772	10.89621057073019	0.1901747504498522	0	0	0	-0.2732617615617325	0.2496925229931875	6.713960210013201	17.79433861581621	1.892647389677311	5.103746886440373	6.351663765360613	100.4420433434879	0	0	12.18242609068687	-1.292821904320006	-1.70448769968689	15.31608706258974	97.62679040882011	0	0
0.32	-0.3279259720592777	-0.5903300103226725	20.4586489948693	0	0.9399999999999999	0	10.37192996156881	-4.325096102105585	-3.534679687367592	10.93574297650951	0.1908647210919358	0	0	0	10.37192996156881	-4.325096102105585	-3.534679687367592	10.93574297650951	0.1908647210919358	0	0	0	-0.2730095465708207	0.242811415648986	6.708005667476626	17.79096598396155	1.913542401495301	5.199199503373576	6.20661452221469	100.4855284999052	0	0	12.18525114720979	-1.300568810814574	-1.60734191268062	15.20781635440126	97.66720281446962	0	0
